<svg xmlns="http://www.w3.org/2000/svg" xmlns:xlink="http://www.w3.org/1999/xlink" width="500" zoomAndPan="magnify" viewBox="0 0 375 374.999991" height="500" preserveAspectRatio="xMidYMid meet" version="1.0"><defs><g/></defs><rect x="-37.5" width="450" fill="#ffffff" y="-37.499999" height="449.999989" fill-opacity="1"/><rect x="-37.5" width="450" fill="#ffffff" y="-37.499999" height="449.999989" fill-opacity="1"/><rect x="-37.5" width="450" fill="#ff5757" y="-37.499999" height="449.999989" fill-opacity="1"/><g fill="#ffffff" fill-opacity="1"><g transform="translate(79.202123, 266.999982)"><g><path d="M 62.796875 -34.398438 C 62.796875 -29.199219 60 -26.398438 54.796875 -26.398438 L 44.398438 -26.398438 C 39.199219 -26.398438 36.398438 -29.199219 36.398438 -34.398438 L 36.398438 -49.597656 C 36.398438 -51.597656 35.199219 -52.796875 33.199219 -52.796875 L 13.199219 -52.796875 C 11 -52.796875 10 -51.597656 10 -49.597656 L 10 -28.800781 C 10 -10 20 0 38.800781 0 L 61.199219 0 C 79.796875 0 89.996094 -10 89.996094 -28.800781 L 89.996094 -156.796875 C 89.996094 -158.796875 88.796875 -159.996094 86.796875 -159.996094 L 66 -159.996094 C 63.796875 -159.996094 62.796875 -158.796875 62.796875 -156.796875 Z M 62.796875 -34.398438 "/></g></g></g><g fill="#ffffff" fill-opacity="1"><g transform="translate(183.199431, 266.999982)"><g><path d="M 10 -3.199219 C 10 -1 11 0 13.199219 0 L 61.199219 0 C 79.996094 0 89.996094 -10 89.996094 -28.800781 L 89.996094 -130.996094 C 89.996094 -149.796875 79.996094 -159.996094 61.199219 -159.996094 L 13.199219 -159.996094 C 11 -159.996094 10 -158.796875 10 -156.796875 Z M 37.199219 -26.398438 L 37.199219 -133.597656 L 55.597656 -133.597656 C 60.796875 -133.597656 63.597656 -130.796875 63.597656 -125.398438 L 63.597656 -34.398438 C 63.597656 -29 60.796875 -26.398438 55.597656 -26.398438 Z M 37.199219 -26.398438 "/></g></g></g></svg>